<svg width="48" height="48" viewBox="0 0 48 48" fill="none" xmlns="http://www.w3.org/2000/svg">
<path d="M43.0769 6.76922C43.0131 6.06991 42.4252 5.53551 41.723 5.53845H9.78457C9.17655 5.47049 8.6286 5.90819 8.56063 6.51621C8.55581 6.55932 8.55357 6.60279 8.5538 6.64613L8.30762 35.6923H1.35386C0.612029 35.8062 0.049 36.4204 0 37.1693V39.2001C0.0930529 43.6102 3.59314 47.1911 7.99996 47.3847H34.9539C39.4401 47.3848 43.077 43.7481 43.0771 39.2619C43.0771 39.2413 43.077 39.2207 43.0769 39.2002V6.76922ZM8.30774 44.9232C5.12651 44.9239 2.52857 42.3807 2.46154 39.2001V38.1539H26.4615V39.2001C26.4679 41.3635 27.357 43.4305 28.9231 44.9232H8.30774ZM40.6154 39.2001C40.6154 42.4288 37.998 45.0463 34.7692 45.0463C31.5405 45.0463 28.923 42.4289 28.923 39.2001V37.1693C28.923 36.4923 28.4922 35.6923 27.8153 35.6923H10.7693L11.0155 7.99999H40.6155V39.2001H40.6154Z" fill="#034EFE"/>
<path d="M14.9542 16.6154H24.4927C25.1724 16.6154 25.7234 16.0644 25.7234 15.3846C25.7234 14.7049 25.1724 14.1539 24.4927 14.1539H14.9542C14.2744 14.1539 13.7234 14.7049 13.7234 15.3846C13.7234 16.0644 14.2744 16.6154 14.9542 16.6154Z" fill="#034EFE"/>
<path d="M14.9542 23.3847H34.3387C35.0185 23.3847 35.5695 22.8337 35.5695 22.1539C35.5695 21.4742 35.0185 20.9232 34.3387 20.9232H14.9542C14.2744 20.9232 13.7234 21.4742 13.7234 22.1539C13.7234 22.8337 14.2744 23.3847 14.9542 23.3847Z" fill="#034EFE"/>
<path d="M14.9542 30.7694H34.3387C35.0185 30.7694 35.5695 30.2184 35.5695 29.5386C35.5695 28.8589 35.0185 28.3079 34.3387 28.3079H14.9542C14.2744 28.3079 13.7234 28.8589 13.7234 29.5386C13.7234 30.2184 14.2744 30.7694 14.9542 30.7694Z" fill="#034EFE"/>
<path d="M46.646 0.615491H14.7076C14.0278 0.615491 13.4768 1.16651 13.4768 1.84626C13.4768 2.52602 14.0278 3.07704 14.7076 3.07704H45.5384V34.2771C45.5384 34.9569 46.0894 35.5079 46.7691 35.5079C47.4489 35.5079 47.9999 34.9569 47.9999 34.2771V1.84626C47.9361 1.14695 47.3483 0.612546 46.646 0.615491Z" fill="#034EFE"/>
</svg>
