<svg width="517" height="523" viewBox="0 0 517 523" fill="none" xmlns="http://www.w3.org/2000/svg">
<g clip-path="url(#clip0_137_774)">
<path d="M382.066 492.927L310.502 454.836C292.284 445.16 282.434 422.584 286.88 400.444L318.608 241.452C323.925 214.866 347.635 198.391 371.17 205.016L439.77 224.105C461.91 230.294 475.944 254.614 471.934 279.805L443.257 457.886C438.027 489.179 407.78 506.613 382.066 492.927Z" fill="#034EFE"/>
<path d="M454.85 237.878C447.528 251.389 445.261 266.556 443.867 281.723C442.211 299.592 440.816 317.548 439.073 335.417C435.324 372.463 430.705 409.509 425.213 446.381C425.126 446.816 425.823 446.991 425.823 446.555C431.053 411.34 435.586 376.037 439.247 340.56C441.077 323.04 442.646 305.432 444.041 287.824C445.436 270.827 447.266 253.568 455.46 238.314C455.634 237.791 455.111 237.442 454.85 237.878Z" fill="#F0F4FF"/>
<path d="M115.161 310.401C118.125 313.539 536.525 516.811 536.525 516.811L512.293 580.268L-56.644 582.273L-2.16489 347.185L115.161 310.401Z" fill="#F0F4FF" stroke="#001C5B" stroke-width="0.75" stroke-miterlimit="10"/>
<path d="M109.67 363.834L35.1424 389.809L11.4331 359.65L80.9049 339.166L109.67 363.834Z" fill="#F0F4FF" stroke="#001C5B" stroke-width="0.75" stroke-miterlimit="10"/>
<path d="M124.227 361.916L46.9972 389.722L22.5034 357.383L94.4159 335.505L124.227 361.916Z" fill="#F0F4FF" stroke="#001C5B" stroke-width="0.75" stroke-miterlimit="10"/>
<path d="M120.479 354.158L45.951 380.047L22.2417 349.887L91.7135 329.403L120.479 354.158Z" fill="#F0F4FF" stroke="#001C5B" stroke-width="0.75" stroke-miterlimit="10"/>
<path d="M40.3725 362.875C42.0287 362.875 42.0287 360.26 40.3725 360.26C38.7163 360.26 38.7163 362.875 40.3725 362.875Z" fill="#034EFE"/>
<path d="M42.8132 350.149C47.5202 356.599 52.4016 362.788 57.4573 368.889C57.7188 369.238 58.1546 368.715 57.8931 368.454C52.8374 362.439 47.9561 356.25 43.3362 349.8C43.1619 349.538 42.5517 349.8 42.8132 350.149Z" fill="#034EFE"/>
<path d="M55.3648 356.163C57.8055 358.865 60.2461 361.742 62.5996 364.531C62.8611 364.88 63.297 364.357 63.0355 364.095C60.682 361.219 58.2413 358.429 55.8006 355.727C55.5391 355.379 55.1033 355.814 55.3648 356.163Z" fill="#034EFE"/>
<path d="M57.3701 346.139C61.7284 351.979 65.9124 357.906 69.9221 364.008C70.1836 364.357 70.7066 364.008 70.4451 363.659C66.4354 357.558 62.2514 351.63 57.8931 345.79C57.6316 345.529 57.1086 345.79 57.3701 346.139Z" fill="#034EFE"/>
<path d="M67.1324 343.611C71.4036 348.492 75.3261 353.722 78.8999 359.127C79.1614 359.475 79.6844 359.127 79.4229 358.778C75.8491 353.287 71.8394 348.057 67.5683 343.088C67.3939 342.827 66.8709 343.262 67.1324 343.611Z" fill="#034EFE"/>
<path d="M80.3819 339.34C85.6119 344.831 90.4932 350.497 95.1131 356.512C95.3746 356.86 95.8976 356.512 95.6361 356.163C91.0162 350.061 86.1349 344.308 80.8177 338.817C80.5562 338.555 80.1204 339.078 80.3819 339.34Z" fill="#034EFE"/>
<path d="M175.219 475.93L79.0746 499.901L60.2466 468.608L153.515 445.334L175.219 475.93Z" fill="#034EFE"/>
<path d="M95.0261 486.477L85.3506 487.872L75.2393 472.095L84.9148 470.7L95.0261 486.477Z" fill="#F0F4FF"/>
<path d="M60.2466 469.828C60.2466 471.223 60.2466 472.618 60.2466 473.925C60.2466 474.361 60.9439 474.361 60.9439 473.925C60.9439 472.531 60.9439 471.136 60.9439 469.828C60.8568 469.393 60.2466 469.393 60.2466 469.828Z" fill="#001C5B"/>
<path d="M60.9441 475.668C65.9126 484.472 70.9683 493.276 75.9368 502.08C76.1111 502.429 76.7213 502.08 76.4598 501.731C71.4913 492.927 66.4356 484.124 61.4671 475.32C61.2928 474.971 60.6826 475.233 60.9441 475.668Z" fill="#001C5B"/>
<path d="M64.5176 479.504C69.1374 487 73.5829 494.584 77.6797 502.254C77.8541 502.603 78.4642 502.254 78.2027 501.906C74.0187 494.148 69.6604 486.564 65.0406 479.155C64.7791 478.807 64.2561 479.155 64.5176 479.504Z" fill="#001C5B"/>
<path d="M81.6022 501.295C93.7183 498.593 105.835 495.542 117.776 492.23C118.212 492.143 118.038 491.446 117.602 491.62C105.573 495.019 93.544 497.983 81.4278 500.685C81.0792 500.772 81.2535 501.383 81.6022 501.295Z" fill="#001C5B"/>
<path d="M113.418 495.107C133.554 490.574 153.515 485.431 173.302 479.678C173.738 479.591 173.563 478.894 173.128 479.068C153.341 484.821 133.38 489.964 113.244 494.496C112.808 494.496 112.983 495.194 113.418 495.107Z" fill="#001C5B"/>
<path d="M82.9971 503.213C91.7138 500.947 100.518 498.942 109.409 497.286C109.844 497.199 109.67 496.589 109.234 496.676C100.343 498.332 91.5394 500.337 82.8228 502.603C82.3869 502.69 82.5613 503.3 82.9971 503.213Z" fill="#001C5B"/>
<path d="M129.457 489.354C140.963 486.739 152.382 483.862 163.714 480.811C164.149 480.724 163.975 480.114 163.539 480.201C152.12 483.252 140.702 486.041 129.283 488.743C128.847 488.743 129.021 489.441 129.457 489.354Z" fill="#001C5B"/>
<path d="M173.04 476.715C172.866 478.284 172.692 479.852 172.517 481.421C172.43 481.857 173.127 481.857 173.215 481.421C173.389 479.852 173.563 478.284 173.738 476.715C173.738 476.279 173.127 476.279 173.04 476.715Z" fill="#001C5B"/>
<path d="M106.968 426.942C105.66 427.64 102.697 428.773 98.8613 428.599C95.3746 428.424 92.7596 427.117 91.4521 426.419C89.0115 414.565 86.658 402.623 84.2173 390.768H113.505L106.968 426.942Z" fill="#001C5B"/>
<path d="M98.9477 400.618C107.035 400.618 113.592 395.896 113.592 390.071C113.592 384.246 107.035 379.524 98.9477 379.524C90.8601 379.524 84.3037 384.246 84.3037 390.071C84.3037 395.896 90.8601 400.618 98.9477 400.618Z" fill="#F0F4FF" stroke="#001C5B" stroke-width="0.75" stroke-miterlimit="10"/>
<path d="M99.123 396.434C104.322 396.434 108.537 393.468 108.537 389.809C108.537 386.151 104.322 383.185 99.123 383.185C93.9238 383.185 89.709 386.151 89.709 389.809C89.709 393.468 93.9238 396.434 99.123 396.434Z" fill="#F0F4FF" stroke="#001C5B" stroke-width="0.75" stroke-miterlimit="10"/>
<path d="M326.298 452.493C333.378 447.17 336.538 439.424 333.356 435.192C330.174 430.959 321.854 431.843 314.774 437.165C307.694 442.488 304.534 450.234 307.716 454.467C310.898 458.7 319.217 457.816 326.298 452.493Z" fill="#F0F4FF" stroke="#001C5B" stroke-width="0.75" stroke-miterlimit="10"/>
<path d="M308.584 454.836C309.979 450.913 312.332 447.514 315.644 444.899C315.993 444.637 315.47 444.201 315.209 444.463C311.896 447.165 309.456 450.652 307.974 454.749C307.8 455.097 308.41 455.271 308.584 454.836Z" fill="#001C5B"/>
<path d="M310.153 443.155C315.906 442.894 320.875 446.206 322.618 451.785C322.705 452.221 323.402 452.046 323.228 451.61C321.398 445.857 316.255 442.196 310.153 442.545C309.804 442.545 309.804 443.242 310.153 443.155Z" fill="#001C5B"/>
<path d="M258.464 465.993L167.723 400.967L223.684 364.444L312.681 417.615L258.464 465.993Z" fill="#F0F4FF" stroke="#001C5B" stroke-width="0.75" stroke-miterlimit="10"/>
<path d="M253.844 459.194L178.968 405.412L223.161 374.904L297.166 421.276L253.844 459.194Z" fill="#F0F4FF" stroke="#001C5B" stroke-width="0.75" stroke-miterlimit="10"/>
<path d="M217.931 378.565L292.894 425.025" stroke="#001C5B" stroke-width="0.75" stroke-miterlimit="10"/>
<path d="M212.353 382.4L288.1 429.209" stroke="#001C5B" stroke-width="0.75" stroke-miterlimit="10"/>
<path d="M206.687 386.323L283.568 433.131" stroke="#001C5B" stroke-width="0.75" stroke-miterlimit="10"/>
<path d="M201.631 389.722L278.163 437.141" stroke="#001C5B" stroke-width="0.75" stroke-miterlimit="10"/>
<path d="M196.052 393.645L273.369 442.022" stroke="#001C5B" stroke-width="0.75" stroke-miterlimit="10"/>
<path d="M190.038 397.741L268.575 446.293" stroke="#001C5B" stroke-width="0.75" stroke-miterlimit="10"/>
<path d="M184.198 401.751L262.648 451.436" stroke="#001C5B" stroke-width="0.75" stroke-miterlimit="10"/>
<path d="M291.674 417.877L246.435 453.877" stroke="#001C5B" stroke-width="0.75" stroke-miterlimit="10"/>
<path d="M283.567 413.431L240.246 449.431" stroke="#001C5B" stroke-width="0.75" stroke-miterlimit="10"/>
<path d="M229.35 378.826L187.161 410.294" stroke="#001C5B" stroke-width="0.75" stroke-miterlimit="10"/>
<path d="M236.41 382.487L195.355 414.739" stroke="#001C5B" stroke-width="0.75" stroke-miterlimit="10"/>
<path d="M243.471 387.63L201.631 421.712" stroke="#001C5B" stroke-width="0.75" stroke-miterlimit="10"/>
<path d="M277.205 409.422L231.529 443.765" stroke="#001C5B" stroke-width="0.75" stroke-miterlimit="10"/>
<path d="M247.306 396.783L208.517 426.594" stroke="#001C5B" stroke-width="0.75" stroke-miterlimit="10"/>
<path d="M256.982 402.71L215.839 431.911" stroke="#001C5B" stroke-width="0.75" stroke-miterlimit="10"/>
<path d="M264.827 407.591L224.817 438.274" stroke="#001C5B" stroke-width="0.75" stroke-miterlimit="10"/>
<path d="M115.162 335.33L224.817 407.853L257.679 465.819L169.466 402.187L115.162 335.33Z" fill="#F0F4FF" stroke="#001C5B" stroke-width="0.75" stroke-miterlimit="10"/>
<path d="M232.488 350.933C231.791 351.369 230.832 352.153 229.699 353.112C226.735 355.727 226.038 357.47 223.161 361.044C221.244 363.398 219.587 365.403 216.972 367.32C215.316 368.541 213.311 370.022 210.348 370.807C209.127 371.156 204.943 372.289 200.149 370.458C198.755 369.935 194.309 368.192 192.566 363.921C192.217 362.962 192.043 362.09 191.956 361.48C192.74 359.824 194.135 357.47 196.227 355.03C197.709 353.374 200.847 350.148 212.004 345.006C215.229 343.524 219.587 341.606 224.905 339.776C225.166 339.863 230.57 340.822 232.314 345.441C233.185 347.882 232.75 349.974 232.488 350.933Z" fill="#F0F4FF"/>
<path d="M326.105 255.573C324.536 256.27 322.27 257.403 319.916 259.234C316.517 261.936 314.425 264.899 312.943 267.34C307.8 275.97 305.882 284.425 305.882 284.425C303.965 292.706 299.519 306.391 289.495 330.449C278.599 333.325 266.047 335.94 252.188 337.771C241.902 339.078 232.314 339.688 223.51 339.863C224.469 340.211 225.689 340.909 227.084 341.868C228.13 342.652 230.309 344.308 231.616 347.098C233.447 351.02 232.401 354.943 231.965 356.076C235.103 356.686 239.723 357.558 245.214 358.604C267.79 362.788 258.464 360.696 273.02 363.398C273.02 363.398 281.301 364.88 291.151 365.228C293.156 365.315 296.12 365.315 299.693 364.095C300.391 363.834 303.354 362.788 306.754 360.085C310.589 357.035 312.681 353.722 313.379 352.502C322.705 337.771 327.5 336.986 332.294 324.87C334.211 319.989 335.17 315.979 336.391 310.139C337.872 303.601 338.918 296.628 339.093 292.618C339.877 277.451 331.335 262.982 326.105 255.573Z" fill="#F0F4FF"/>
<path d="M322.444 257.142C312.769 262.72 309.195 273.703 305.795 283.64C300.565 298.546 295.422 313.539 290.192 328.444C290.018 328.88 290.715 329.054 290.803 328.618C295.422 315.282 300.042 302.033 304.662 288.696C308.497 277.626 311.81 264.028 322.706 257.752C323.141 257.49 322.793 256.967 322.444 257.142Z" fill="#001C5B"/>
<path d="M225.166 339.427C245.65 339.078 266.047 336.55 286.009 331.843C286.444 331.756 286.27 331.146 285.834 331.233C265.96 335.94 245.65 338.468 225.166 338.817C224.818 338.817 224.818 339.514 225.166 339.427Z" fill="#001C5B"/>
<path d="M224.73 341.17C230.222 343.001 233.36 349.102 231.616 354.681C231.529 355.117 232.139 355.291 232.227 354.855C234.057 348.928 230.745 342.478 224.817 340.56C224.469 340.473 224.294 341.083 224.73 341.17Z" fill="#001C5B"/>
<path d="M234.755 356.686C245.563 359.214 256.372 361.306 267.355 362.962C276.42 364.357 286.27 366.536 295.423 365.316C303.616 364.27 308.759 358.952 313.466 352.589C320.178 343.698 326.454 334.458 332.381 324.957C332.643 324.609 332.033 324.26 331.858 324.609C326.803 332.628 321.485 340.473 315.907 348.144C309.631 356.686 303.878 364.357 292.372 364.792C283.045 365.141 273.282 363.136 264.13 361.654C254.28 360.085 244.604 358.168 234.929 355.901C234.58 355.989 234.406 356.599 234.755 356.686Z" fill="#001C5B"/>
<path d="M230.396 352.24C224.207 356.25 222.289 363.921 215.752 367.582C215.403 367.756 215.752 368.366 216.101 368.105C222.638 364.444 224.556 356.686 230.744 352.763C231.006 352.589 230.744 352.066 230.396 352.24Z" fill="#001C5B"/>
<path d="M220.11 341.868C208.692 345.529 196.663 350.236 191.433 361.829C191.258 362.177 191.868 362.526 191.956 362.177C197.098 350.671 208.953 346.052 220.198 342.478C220.633 342.391 220.459 341.693 220.11 341.868Z" fill="#001C5B"/>
<path d="M194.135 364.618C197.011 359.65 201.021 355.64 205.989 352.763C206.338 352.589 205.989 351.979 205.641 352.24C200.585 355.117 196.401 359.214 193.525 364.357C193.35 364.705 193.96 364.967 194.135 364.618Z" fill="#001C5B"/>
<path d="M197.622 365.838C200.411 360.608 205.641 357.732 210.697 355.03C211.045 354.855 210.697 354.245 210.348 354.507C205.205 357.296 199.975 360.26 197.099 365.577C196.924 365.926 197.447 366.187 197.622 365.838Z" fill="#001C5B"/>
<path d="M201.892 367.495C204.856 363.223 208.953 359.998 213.921 358.255C214.357 358.081 214.183 357.47 213.747 357.645C208.691 359.475 204.42 362.7 201.369 367.146C201.108 367.495 201.718 367.843 201.892 367.495Z" fill="#001C5B"/>
<path d="M325.233 256.88C321.398 260.018 320.875 265.161 320.352 270.391C319.132 283.553 318.521 290.091 318.957 296.279C319.655 307.262 318.26 309.442 315.732 334.197C314.163 349.538 312.333 372.637 310.938 406.371C343.887 422.235 376.749 438.1 409.698 453.964C410.046 451.087 410.569 446.816 411.354 441.586C412.4 434.962 413.359 430.69 413.795 427.901C415.276 417.79 415.974 409.422 416.584 402.013C419.722 361.306 419.983 368.453 420.768 352.589C421.64 335.504 421.988 312.841 420.594 285.819C415.102 280.241 406.56 272.657 394.444 266.207C391.916 264.899 380.758 259.059 364.894 255.747C356.7 254.004 349.727 254.091 335.868 254.178C332.294 254.178 328.371 254.265 325.233 256.88Z" fill="#F0F4FF"/>
<path d="M327.761 255.485C361.408 249.907 396.623 261.587 420.332 285.994C420.594 286.255 421.117 285.819 420.768 285.558C396.797 260.977 361.408 249.297 327.587 254.875C327.151 254.962 327.325 255.573 327.761 255.485Z" fill="#001C5B"/>
<path d="M320.613 283.902C315.906 323.388 312.681 363.049 310.938 402.797C310.938 403.233 311.548 403.233 311.635 402.797C313.379 363.049 316.604 323.388 321.311 283.902C321.311 283.466 320.701 283.466 320.613 283.902Z" fill="#001C5B"/>
<path d="M419.984 304.647C423.296 354.158 416.41 403.494 409.524 452.482C409.436 452.918 410.134 453.092 410.134 452.656C417.02 403.669 423.906 354.245 420.594 304.647C420.594 304.212 419.984 304.212 419.984 304.647Z" fill="#001C5B"/>
<path d="M401.33 450.826C401.766 450.826 401.766 450.129 401.33 450.129C400.894 450.129 400.894 450.826 401.33 450.826Z" fill="#001C5B"/>
<path d="M302.396 408.114C302.221 408.55 301.785 409.247 301.175 409.945C299.868 411.427 298.212 411.862 297.34 412.037C294.289 412.821 291.587 411.862 290.628 411.514C286.706 410.032 286.706 408.027 284.178 407.853C283.655 407.853 282.87 407.853 277.815 411.165C273.543 413.867 273.282 414.39 271.974 414.565C268.139 415 265.001 411.514 264.827 411.252C262.125 408.114 262.56 404.279 262.648 403.669C263.606 402.274 265.088 400.269 267.267 398.352C269.185 396.608 271.713 394.342 275.723 393.122C279.471 392.076 282.696 392.424 284.439 392.773C288.1 393.47 288.972 394.865 292.982 395.649C295.771 396.26 298.124 396.172 299.781 395.998C300.565 396.87 302.134 398.787 302.744 401.751C303.267 404.628 302.657 406.981 302.396 408.114Z" fill="#F0F4FF"/>
<path d="M420.506 285.732C418.502 287.301 415.625 289.916 413.359 294.013C411.703 296.977 411.267 299.156 409.698 304.124C409.436 304.822 408.042 308.744 405.252 316.415C405.252 316.415 401.853 325.655 398.192 335.069C392.439 349.974 385.727 365.141 382.24 373.16C378.841 374.381 373.785 376.211 367.509 378.303C360.623 380.57 351.993 383.185 329.504 388.85C321.834 390.768 311.722 393.296 299.693 396.085C300.565 397.131 301.96 399.049 302.657 401.838C303.703 406.109 302.308 409.683 301.785 410.816C304.662 410.729 308.846 410.642 314.076 410.468C338.395 409.683 350.599 409.335 362.453 408.114C391.393 405.238 386.86 402.187 402.55 400.792C404.032 400.618 407.954 400.356 411.528 397.741C415.451 394.865 417.194 390.768 419.112 384.318C422.075 374.642 423.557 366.884 424.342 362.875C426.695 349.974 427.916 343.524 428.613 338.119C429.746 328.88 430.443 323.214 430.095 315.369C429.572 304.909 427.741 299.505 427.044 297.587C424.952 292.27 422.424 288.347 420.506 285.732Z" fill="#F0F4FF"/>
<path d="M299.345 396.26C302.221 399.572 303.18 403.843 302.047 408.027C301.96 408.463 302.57 408.637 302.657 408.201C303.878 403.756 302.832 399.223 299.781 395.824C299.606 395.475 299.083 395.911 299.345 396.26Z" fill="#001C5B"/>
<path d="M303.703 410.729C320.352 410.904 337.088 410.381 353.737 409.073C369.166 407.94 384.856 406.632 399.674 401.838C400.11 401.751 399.935 401.054 399.5 401.228C384.245 406.197 367.945 407.417 351.994 408.55C335.868 409.683 319.742 410.206 303.616 410.032C303.268 410.119 303.268 410.729 303.703 410.729Z" fill="#001C5B"/>
<path d="M424.865 293.316C432.623 311.272 429.485 331.669 426.259 350.323C424.69 359.65 422.686 368.889 420.332 378.042C419.112 382.749 418.24 388.24 415.887 392.511C413.446 396.783 409 398.787 404.642 400.705C404.293 400.879 404.555 401.402 404.991 401.228C408.477 399.746 412.226 398.177 414.841 395.214C417.543 392.076 418.414 387.804 419.548 383.882C422.598 372.899 425.039 361.742 426.957 350.497C430.182 331.669 433.32 311.098 425.475 292.967C425.213 292.531 424.69 292.88 424.865 293.316Z" fill="#001C5B"/>
<path d="M301.088 395.998C324.884 390.594 348.419 384.318 371.78 377.344C372.216 377.257 372.042 376.56 371.606 376.734C348.245 383.795 324.71 389.984 300.914 395.388C300.565 395.388 300.739 396.085 301.088 395.998Z" fill="#001C5B"/>
<path d="M410.831 300.028C402.899 322.342 394.357 344.483 385.291 366.361C385.117 366.71 385.727 366.884 385.901 366.536C394.967 344.657 403.422 322.517 411.441 300.202C411.616 299.766 410.918 299.592 410.831 300.028Z" fill="#001C5B"/>
<path d="M300.042 409.77C296.991 413.083 292.633 412.298 288.972 410.293C287.577 409.509 285.921 407.678 284.178 407.504C280.866 407.243 276.246 411.601 273.805 413.431C273.456 413.693 273.805 414.216 274.154 413.954C276.333 412.385 279.558 409.422 282.173 408.812C285.66 407.94 288.1 410.991 291.064 412.037C294.464 413.257 297.95 412.908 300.478 410.206C300.827 409.945 300.391 409.509 300.042 409.77Z" fill="#001C5B"/>
<path d="M292.982 395.388C288.1 393.296 281.912 390.332 276.594 392.337C270.929 394.516 265.524 398.352 262.299 403.494C262.038 403.843 262.648 404.192 262.822 403.843C265.611 399.398 269.883 396.347 274.59 393.993C280.691 390.942 286.706 393.383 292.633 395.911C293.069 396.085 293.418 395.562 292.982 395.388Z" fill="#001C5B"/>
<path d="M263.955 405.935C266.57 402.536 270.057 400.095 274.241 398.875C274.677 398.787 274.502 398.09 274.066 398.264C269.795 399.485 266.134 402.013 263.432 405.586C263.083 405.935 263.694 406.284 263.955 405.935Z" fill="#001C5B"/>
<path d="M266.483 407.853C269.185 404.976 272.411 402.884 276.159 401.577C276.595 401.403 276.42 400.792 275.984 400.967C272.149 402.274 268.837 404.453 266.047 407.417C265.786 407.678 266.222 408.114 266.483 407.853Z" fill="#001C5B"/>
<path d="M268.836 410.816C271.539 408.114 274.677 406.109 278.338 404.976C278.774 404.889 278.599 404.192 278.163 404.366C274.415 405.499 271.103 407.504 268.401 410.293C268.052 410.642 268.488 411.078 268.836 410.816Z" fill="#001C5B"/>
<path d="M365.243 269.432C364.981 269.519 363.935 269.781 363.499 270.652C362.976 271.786 363.761 273.006 364.11 273.529C365.156 275.098 366.725 275.621 367.248 275.795C369.514 276.493 371.519 275.708 372.652 275.272C375.528 274.226 377.01 272.221 377.62 271.437C378.143 270.74 378.579 270.129 378.928 269.258C379.625 267.079 379.189 264.289 378.056 263.418C376.226 261.761 370.996 264.115 365.243 269.432Z" fill="#F0F4FF"/>
<path d="M365.156 269.606C365.766 270.304 366.376 271.088 366.986 271.786C367.248 272.134 367.683 271.611 367.422 271.35C366.812 270.652 366.202 269.868 365.591 269.171C365.33 268.822 364.807 269.345 365.156 269.606Z" fill="#001C5B"/>
<path d="M363.238 270.565C363.063 273.878 365.678 276.144 368.904 276.318C373.349 276.58 376.749 273.006 379.364 269.955C379.625 269.607 379.189 269.171 378.928 269.519C377.359 271.437 375.615 273.355 373.436 274.488C370.037 276.405 363.499 276.231 363.848 270.565C363.848 270.217 363.238 270.217 363.238 270.565Z" fill="#001C5B"/>
<path d="M345.02 244.677C345.02 245.2 345.107 246.943 345.282 248.425C345.456 250.778 345.63 252.173 346.066 253.916C346.851 256.967 347.984 259.059 348.245 259.495C349.814 262.197 351.558 263.853 352.255 264.464C355.131 266.991 358.008 268.037 358.88 268.386C359.577 268.648 362.017 269.345 365.155 269.345C366.55 269.345 370.996 269.258 375.441 266.381C379.451 263.853 381.281 260.541 382.85 257.752C384.855 254.091 386.598 250.953 386.163 246.856C385.64 242.585 383.025 239.795 381.543 238.314C376.661 233.171 370.385 232.125 368.904 231.95C356.788 230.294 345.107 239.534 345.02 244.677Z" fill="#F0F4FF"/>
<path d="M398.889 238.924C393.746 248.251 381.368 251.737 371.78 249.471C356.962 246.072 352.516 230.207 351.122 224.89C350.337 221.926 348.419 215.04 351.557 212.338C354.434 209.897 358.444 213.471 365.33 212.774C375.18 211.815 377.097 203.621 383.112 203.796C392.439 204.144 406.908 224.28 398.889 238.924Z" fill="#001C5B"/>
<path d="M345.107 246.246C335.78 245.2 334.037 242.759 333.688 241.452C332.468 236.745 343.538 229.336 352.168 226.285C358.182 224.106 362.889 224.018 365.156 224.106C368.817 224.193 373.436 224.367 377.882 227.418C381.543 229.946 383.286 233.084 383.984 234.478C386.86 239.708 386.686 244.764 386.511 246.943C385.988 246.943 385.03 246.943 383.896 247.292C381.107 248.251 380.671 250.517 377.62 252.696C376.487 253.481 375.18 254.439 373.349 254.701C369.863 255.137 366.899 252.783 365.591 251.737C361.233 248.251 362.018 245.548 357.834 242.585C356.352 241.539 354.085 239.97 351.383 240.406C347.286 240.841 345.282 245.723 345.107 246.246Z" fill="#001C5B"/>
<path d="M345.282 249.122C345.282 258.885 352.081 268.037 362.018 269.519C371.432 270.914 381.282 265.422 383.809 256.096C383.897 255.66 383.286 255.485 383.199 255.921C380.584 265.335 370.299 270.652 360.972 268.648C351.906 266.73 345.892 258.1 345.979 249.122C345.979 248.686 345.282 248.686 345.282 249.122Z" fill="#001C5B"/>
<path d="M345.195 245.113C347.199 241.19 351.645 239.36 355.742 241.364C358.182 242.585 360.013 245.025 361.582 247.117C363.413 249.558 365.33 252.173 368.032 253.742C370.473 255.137 373.175 255.311 375.703 254.091C378.841 252.609 382.415 245.723 386.163 247.205C386.512 247.379 386.686 246.769 386.337 246.594C382.502 245.113 380.846 249.122 378.492 251.389C371.432 258.1 365.766 251.301 361.408 245.81C356.962 240.231 348.768 236.832 344.672 244.851C344.41 245.2 345.02 245.548 345.195 245.113Z" fill="#001C5B"/>
<path d="M345.369 245.025C346.676 233.868 355.306 224.193 367.073 224.28C379.799 224.367 385.901 235.437 386.25 246.856C386.25 247.292 386.947 247.292 386.947 246.856C386.598 235.088 380.235 223.757 367.16 223.582C355.044 223.495 346.153 233.519 344.758 245.025C344.671 245.461 345.282 245.461 345.369 245.025Z" fill="#001C5B"/>
<path d="M351.47 255.224C352.081 258.885 352.952 262.982 356.7 264.551C357.049 264.725 357.398 264.115 357.049 264.028C353.475 262.459 352.691 258.536 352.168 255.05C351.993 254.614 351.383 254.788 351.47 255.224Z" fill="#001C5B"/>
<path d="M360.308 259.835C360.826 259.726 361.117 259.027 360.958 258.273C360.799 257.519 360.25 256.997 359.732 257.106C359.214 257.215 358.923 257.915 359.082 258.669C359.241 259.422 359.79 259.945 360.308 259.835Z" fill="#001C5B"/>
<path d="M357.136 252.87C357.572 252.347 358.182 251.912 358.879 251.824C359.751 251.65 360.448 252.173 361.146 252.609C361.494 252.87 361.843 252.26 361.494 252.086C360.71 251.476 359.925 251.04 358.967 251.127C358.095 251.214 357.31 251.737 356.7 252.435C356.439 252.696 356.875 253.219 357.136 252.87Z" fill="#001C5B"/>
<path d="M347.548 253.742C348.158 252.87 349.378 252.958 349.989 253.829C350.25 254.178 350.773 253.829 350.512 253.481C349.64 252.173 347.809 252.173 346.938 253.393C346.676 253.742 347.286 254.091 347.548 253.742Z" fill="#001C5B"/>
<path d="M350.707 260.805C351.178 260.705 351.439 260.052 351.29 259.345C351.141 258.639 350.638 258.147 350.167 258.246C349.696 258.345 349.435 258.999 349.584 259.705C349.733 260.412 350.236 260.904 350.707 260.805Z" fill="#001C5B"/>
<path d="M362.366 224.193C363.064 223.67 367.248 220.619 372.565 221.839C377.533 222.972 381.456 227.418 382.24 232.996C380.933 231.34 378.318 228.464 374.047 226.459C368.991 224.018 364.458 224.018 362.366 224.193Z" fill="#F0F4FF"/>
<path d="M352.691 514.109C351.558 514.981 346.328 518.816 339.006 517.944C333.253 517.247 329.504 514.022 328.284 512.889L324.449 480.899H356.875C355.48 491.969 354.085 503.039 352.691 514.109Z" fill="#001C5B"/>
<path d="M340.575 495.891C349.529 495.891 356.788 489.92 356.788 482.555C356.788 475.189 349.529 469.218 340.575 469.218C331.621 469.218 324.362 475.189 324.362 482.555C324.362 489.92 331.621 495.891 340.575 495.891Z" fill="#F0F4FF" stroke="#001C5B" stroke-width="0.75" stroke-miterlimit="10"/>
<path d="M370.473 400.792C368.991 419.185 354.173 431.475 345.195 446.293C337.611 458.845 333.95 474.448 339.529 488.395C339.877 489.179 341.098 488.831 340.749 488.046C334.212 471.572 340.662 454.226 350.512 440.54C359.403 428.25 370.473 416.57 371.78 400.705C371.868 399.921 370.56 399.921 370.473 400.792Z" fill="#034EFE"/>
<path d="M341.882 455.794C346.328 445.16 344.933 435.223 340.749 424.763C336.129 413.344 336.304 401.49 343.364 390.942C343.8 390.245 342.667 389.548 342.231 390.245C336.74 398.439 334.735 408.55 337.088 418.138C338.483 423.891 341.708 429.121 342.841 434.962C344.236 441.848 343.277 448.908 340.662 455.359C340.313 456.23 341.621 456.492 341.882 455.794Z" fill="#034EFE"/>
<path d="M329.941 387.63C331.51 390.943 329.418 395.911 329.156 399.485C328.982 402.449 329.156 405.499 329.941 408.463C331.248 413.344 333.95 417.528 337.96 420.666C338.657 421.189 339.529 420.231 338.919 419.708C333.34 415.349 330.638 408.899 330.464 401.926C330.376 397.131 333.34 391.553 331.161 387.02C330.725 386.236 329.592 386.933 329.941 387.63Z" fill="#034EFE"/>
<path d="M330.464 395.301C329.33 391.64 328.459 386.759 328.982 381.093C330.289 367.582 338.832 358.255 342.754 354.42C344.062 358.081 345.369 363.485 344.585 369.848C343.19 383.272 334.125 392.163 330.464 395.301Z" fill="#034EFE"/>
<path d="M341.969 429.557C341.534 427.204 341.185 423.717 341.708 419.62C341.969 417.441 342.492 413.693 344.584 409.509C347.112 404.541 350.686 401.403 353.04 399.659C353.301 402.884 353.388 408.812 351.035 415.524C348.42 422.584 344.323 427.204 341.969 429.557Z" fill="#034EFE"/>
<path d="M339.093 397.567C339.354 394.865 340.226 389.112 344.236 383.359C348.594 377.083 354.173 374.119 356.7 372.986C356.352 375.776 355.219 381.79 350.86 387.805C346.676 393.47 341.621 396.347 339.093 397.567Z" fill="#034EFE"/>
<path d="M337.785 468.521C336.042 466.429 333.601 463.029 332.032 458.235C329.33 449.693 331.335 442.284 332.294 439.494C333.601 441.412 334.909 443.766 336.042 446.555C339.703 455.62 338.744 464.075 337.785 468.521Z" fill="#034EFE"/>
<path d="M347.374 444.027C348.594 442.632 352.691 438.274 359.752 436.879C367.248 435.398 373.001 438.361 374.57 439.233C373.175 440.628 367.684 446.032 359.054 446.468C353.65 446.816 349.379 445.073 347.374 444.027Z" fill="#034EFE"/>
<path d="M360.449 402.1C359.141 404.453 355.916 411.078 357.659 419.272C358.27 422.235 359.403 424.589 360.449 426.332C361.582 424.502 363.674 420.405 363.761 414.826C363.935 408.55 361.582 404.018 360.449 402.1Z" fill="#034EFE"/>
<path d="M52.6631 187.408C55.8011 180.958 61.3797 172.154 71.2296 165.617C90.3191 153.152 117.341 154.808 140.701 169.191C147.152 163.089 156.479 155.854 168.769 150.101C197.534 136.677 224.643 140.077 236.236 142.256C232.314 135.457 218.018 112.794 189.863 103.903C163.452 95.6218 141.05 104.513 128.062 109.656C79.9463 128.745 58.5904 173.549 52.6631 187.408Z" fill="#034EFE"/>
<path d="M143.229 283.902L163.626 324.87C180.885 325.568 198.057 326.178 215.316 326.875C224.904 313.103 234.493 299.243 244.168 285.471C237.282 272.047 230.396 258.623 223.422 245.2C208.866 248.774 194.396 252.26 179.839 255.834C167.636 265.161 155.432 274.488 143.229 283.902Z" fill="#F0F4FF" stroke="#001C5B" stroke-width="0.75" stroke-miterlimit="10"/>
<path d="M142.968 284.512C155.868 282.594 168.769 280.764 181.67 279.195C182.106 279.108 182.106 278.497 181.67 278.497C168.682 280.154 155.781 281.897 142.793 283.902C142.358 283.989 142.532 284.599 142.968 284.512Z" fill="#001C5B"/>
<path d="M222.812 245.81C217.234 252.609 211.655 259.321 206.076 266.12C205.815 266.468 206.251 266.904 206.512 266.556C212.091 259.757 217.669 253.045 223.248 246.246C223.51 245.984 223.074 245.461 222.812 245.81Z" fill="#001C5B"/>
<path d="M196.14 283.292C202.851 297.326 209.04 311.621 214.619 326.178C214.793 326.526 215.403 326.439 215.229 326.003C209.65 311.447 203.462 297.064 196.663 282.943C196.488 282.594 195.965 282.943 196.14 283.292Z" fill="#001C5B"/>
<path d="M143.491 284.163C152.382 291.921 161.796 299.069 171.646 305.519C171.994 305.781 172.343 305.171 171.994 304.996C162.144 298.546 152.818 291.398 143.927 283.728C143.665 283.379 143.229 283.902 143.491 284.163Z" fill="#001C5B"/>
<path d="M192.74 276.144C192.74 276.231 192.74 276.318 192.74 276.406C192.74 276.841 193.437 276.841 193.437 276.406C193.437 276.318 193.437 276.231 193.437 276.144C193.35 275.795 192.74 275.795 192.74 276.144Z" fill="#001C5B"/>
<path d="M174.261 304.647C181.234 296.454 187.423 287.65 192.74 278.323C192.914 277.974 192.391 277.626 192.217 277.975C186.9 287.301 180.711 296.018 173.825 304.212C173.563 304.473 173.999 304.996 174.261 304.647Z" fill="#001C5B"/>
<path d="M164.062 323.301C167.026 318.594 169.989 313.887 172.953 309.18C173.214 308.832 172.604 308.483 172.43 308.831C169.466 313.538 166.503 318.246 163.539 322.953C163.277 323.301 163.888 323.65 164.062 323.301Z" fill="#001C5B"/>
<path d="M178.357 308.221C189.95 314.323 201.544 320.425 213.137 326.439C213.485 326.614 213.834 326.091 213.485 325.916C201.892 319.815 190.299 313.713 178.706 307.698C178.357 307.437 178.009 308.047 178.357 308.221Z" fill="#001C5B"/>
<path d="M196.314 277.103C204.943 278.062 213.573 279.108 222.289 280.066C222.464 280.066 222.638 279.892 222.638 279.718C223.51 268.822 224.294 257.839 225.166 246.943C225.166 246.507 224.556 246.507 224.469 246.943C223.771 256.444 222.987 265.945 222.289 275.36C222.028 278.585 221.156 279.195 217.931 278.846C215.665 278.585 213.311 278.323 211.045 278.062C206.164 277.539 201.282 276.929 196.314 276.406C195.878 276.406 195.878 277.103 196.314 277.103Z" fill="#001C5B"/>
<path d="M215.752 325.567C217.757 316.764 219.936 308.047 222.202 299.33C222.812 297.151 223.335 294.972 223.946 292.793C224.904 289.306 224.556 287.388 228.827 286.255C232.924 285.122 237.979 285.296 242.251 284.861C242.686 284.861 242.686 284.163 242.251 284.163C237.282 284.686 231.965 284.686 227.084 285.732C224.207 286.342 224.294 289.132 223.597 291.747C220.546 302.904 217.67 314.062 215.142 325.306C215.055 325.829 215.665 326.003 215.752 325.567Z" fill="#001C5B"/>
<path d="M51.7915 189.849L143.229 283.902" stroke="#001C5B" stroke-width="0.75" stroke-miterlimit="10"/>
<path d="M191.694 276.057L162.231 173.2" stroke="#001C5B" stroke-width="0.75" stroke-miterlimit="10"/>
<path d="M223.422 245.2L236.236 142.169" stroke="#001C5B" stroke-width="0.75" stroke-miterlimit="10"/>
<path d="M179.839 255.834L140.701 169.19" stroke="#001C5B" stroke-width="0.75" stroke-miterlimit="10"/>
<path d="M51.7913 189.849C53.7962 183.66 61.1182 163.96 80.7307 153.762C105.224 140.948 138.958 148.27 162.231 173.2C162.319 170.411 163.103 150.362 179.055 138.508C194.745 126.827 218.541 127.786 236.323 142.256C236.759 134.498 238.154 95.8833 210.086 67.7285C177.486 35.1282 122.396 33.995 85.1762 59.7092C45.6025 87.1667 30.6098 142.082 51.7913 189.849Z" fill="#BDD1FF"/>
</g>
<defs>
<clipPath id="clip0_137_774">
<rect width="523" height="523" fill="white" transform="translate(-6)"/>
</clipPath>
</defs>
</svg>
