<svg width="560" height="527" viewBox="0 0 560 527" fill="none" xmlns="http://www.w3.org/2000/svg">
<path d="M455.84 446.227C460.973 474.693 466.107 503.253 471.24 531.72C487.573 531.907 503.813 532.187 520.147 532.373C524.253 503.627 528.267 474.973 532.373 446.227H455.84Z" fill="#001C5B"/>
<path d="M494.107 462.28C515.241 462.28 532.373 455.636 532.373 447.44C532.373 439.244 515.241 432.6 494.107 432.6C472.972 432.6 455.84 439.244 455.84 447.44C455.84 455.636 472.972 462.28 494.107 462.28Z" fill="#F0F4FF" stroke="#001C5B" stroke-width="0.75" stroke-miterlimit="10"/>
<path d="M487.106 351.493C481.32 359.24 476.56 367.64 472.826 376.6C469.373 384.72 466.48 393.867 467.88 402.733C469.186 410.947 474.413 416.733 480.013 422.427C487.666 430.267 492.893 438.573 492.613 449.867C492.613 451.64 495.413 451.64 495.413 449.867C495.6 441.84 493.36 434.187 488.506 427.747C483.653 421.307 476.466 416.453 472.733 409.08C467.973 399.747 470.866 388.827 474.506 379.587C478.333 370.067 483.373 361.107 489.533 352.893C490.56 351.493 488.133 350.093 487.106 351.493Z" fill="#034EFE"/>
<path d="M492.053 432.787C485.426 412.533 512.866 398.44 506.24 377.72C505.68 376.04 502.973 376.787 503.533 378.467C510.066 398.72 482.533 412.72 489.346 433.533C489.906 435.213 492.613 434.467 492.053 432.787Z" fill="#034EFE"/>
<path d="M474.226 343.653C470.493 349.067 466.853 354.76 465.92 361.387C464.8 368.573 467.506 375.2 470.306 381.64C471.053 383.32 473.386 381.827 472.733 380.24C470.026 373.893 467.32 367.267 469 360.173C470.306 354.573 473.48 349.72 476.653 345.053C477.586 343.56 475.16 342.16 474.226 343.653Z" fill="#034EFE"/>
<path d="M498.493 405.067C495.6 398.907 494.107 392.28 494.387 385.467C494.667 379.4 497.56 373.613 497 367.547C496.813 365.773 494.013 365.773 494.2 367.547C494.573 371.747 492.987 375.48 492.24 379.493C491.68 382.48 491.4 385.653 491.493 388.733C491.68 394.987 493.36 400.867 495.973 406.467C496.907 408.053 499.333 406.653 498.493 405.067Z" fill="#034EFE"/>
<path d="M495.413 381.547C496.813 375.293 501.666 370.16 504.186 364.373C506.613 358.773 508.013 352.893 508.666 346.827C508.853 345.053 506.053 345.053 505.866 346.827C505.12 353.827 503.253 360.547 499.893 366.8C497.373 371.467 493.826 375.573 492.613 380.893C492.333 382.573 495.04 383.32 495.413 381.547Z" fill="#034EFE"/>
<path d="M470.96 408.52C470.12 408.613 462.093 409.08 456.68 402.733C452.667 397.973 451.64 391.253 454.067 385.28C456.4 386.12 460.133 387.8 463.493 391.253C470.027 397.88 470.773 406.093 470.96 408.52Z" fill="#034EFE"/>
<path d="M471.987 382.76C471.147 380.613 476.28 376.507 479.267 374.64C483.467 371.933 487.667 371.093 490.373 370.813C490.187 372.027 488.88 379.587 482.627 382.76C478.427 384.813 472.733 384.627 471.987 382.76Z" fill="#034EFE"/>
<path d="M471.333 350.747C470.96 349.627 468.253 340.947 473.386 333.387C476 329.56 479.546 327.693 481.32 326.947C482.44 329.373 482.72 331.427 482.813 333.013C483.093 343.467 472.266 350.187 471.333 350.747Z" fill="#034EFE"/>
<path d="M485.706 358.68C484.96 357.093 483.373 353.08 484.4 348.227C486.173 339.64 494.293 336 495.133 335.72C495.04 338.333 494.666 341.973 493.266 345.893C491.213 352.053 487.946 356.253 485.706 358.68Z" fill="#034EFE"/>
<path d="M499.8 402.267C501.293 399.56 504 395.36 508.76 391.627C514.453 387.053 520.24 385.373 523.413 384.627C522.853 386.773 521.733 389.387 519.96 391.907C513.333 400.96 502.133 402.08 499.8 402.267Z" fill="#034EFE"/>
<path d="M481.973 424.2C480.946 422.8 477.026 417.107 477.773 409.08C478.52 400.68 483.84 395.64 485.053 394.52C485.706 396.947 486.266 399.747 486.453 402.92C487.013 412.44 484.12 420 481.973 424.2Z" fill="#034EFE"/>
<path d="M270.574 434V375.667C270.574 370.533 266.467 366.427 261.334 366.427H249.107C243.974 366.427 239.867 370.533 239.867 375.667V434.187C218.307 437.173 202.72 446.04 202.72 456.4C202.72 469.28 226.614 479.733 256.014 479.733C285.414 479.733 309.307 469.28 309.307 456.4C309.307 445.76 292.974 436.707 270.574 434Z" fill="#F0F4FF" stroke="#001C5B" stroke-miterlimit="10"/>
<path d="M448.093 425.6L98.5601 345.52L112.84 8.49335L477.12 52.8267L448.093 425.6Z" fill="#F0F4FF" stroke="#001C5B" stroke-width="0.75" stroke-miterlimit="10"/>
<path d="M100.147 307.16L98.5601 345.52L448.093 425.6L451.547 381.36L100.147 307.16Z" fill="#F0F4FF" stroke="#001C5B" stroke-width="0.75" stroke-miterlimit="10"/>
<path d="M254.333 375.293C259.127 375.293 263.013 371.407 263.013 366.613C263.013 361.819 259.127 357.933 254.333 357.933C249.539 357.933 245.653 361.819 245.653 366.613C245.653 371.407 249.539 375.293 254.333 375.293Z" fill="#F0F4FF" stroke="#001C5B" stroke-miterlimit="10"/>
<path d="M162.587 36.7733C161.467 37.8 153.533 44.7067 141.96 43.2133C130.107 41.72 124.133 32.48 123.387 31.2667C124.6 30.24 132.533 23.52 144.013 25.0133C155.773 26.5067 161.747 35.4667 162.587 36.7733Z" stroke="#001C5B" stroke-width="0.75" stroke-miterlimit="10"/>
<path d="M142.053 41.0667C145.919 41.0667 149.053 37.9327 149.053 34.0667C149.053 30.2007 145.919 27.0667 142.053 27.0667C138.187 27.0667 135.053 30.2007 135.053 34.0667C135.053 37.9327 138.187 41.0667 142.053 41.0667Z" fill="#001C5B" stroke="#001C5B" stroke-width="0.75" stroke-miterlimit="10"/>
<path d="M25.3866 190.307C24.92 192.267 22.3066 275.893 22.3066 275.893L196.187 310.8L205.24 225.493L25.3866 190.307Z" fill="#F0F4FF" stroke="#001C5B" stroke-width="0.75" stroke-miterlimit="10"/>
<path d="M23.8931 215.973L202.626 249.293L205.146 225.587L25.3864 190.307L23.8931 215.973Z" fill="#001C5B"/>
<path d="M35.0933 232.493C37.6191 232.493 39.6667 230.446 39.6667 227.92C39.6667 225.394 37.6191 223.347 35.0933 223.347C32.5676 223.347 30.52 225.394 30.52 227.92C30.52 230.446 32.5676 232.493 35.0933 232.493Z" fill="#034EFE"/>
<path d="M34.3468 268.24C36.5117 268.24 38.2668 266.485 38.2668 264.32C38.2668 262.155 36.5117 260.4 34.3468 260.4C32.1818 260.4 30.4268 262.155 30.4268 264.32C30.4268 266.485 32.1818 268.24 34.3468 268.24Z" fill="#034EFE"/>
<path d="M43.8667 230.813L177.427 256.667" stroke="#001C5B" stroke-miterlimit="10"/>
<path d="M38.2666 243.787L147.56 266.747" stroke="#001C5B" stroke-miterlimit="10"/>
<path d="M49.4668 264.32L177.427 291.2" stroke="#001C5B" stroke-miterlimit="10"/>
<path d="M363.253 76.2534L355.413 134.12L499.426 163.52L511 103.693L363.253 76.2534Z" fill="#F0F4FF" stroke="#001C5B" stroke-width="0.75" stroke-miterlimit="10"/>
<path d="M361.573 88.3867C410.573 97.44 459.573 106.4 508.573 115.453C509.413 111.533 510.16 107.613 511 103.693C461.72 94.5467 412.533 85.4 363.253 76.3467" fill="#001C5B"/>
<path d="M370.72 106.213C373.194 106.213 375.2 104.208 375.2 101.733C375.2 99.2591 373.194 97.2534 370.72 97.2534C368.246 97.2534 366.24 99.2591 366.24 101.733C366.24 104.208 368.246 106.213 370.72 106.213Z" fill="#034EFE"/>
<path d="M365.96 125.16C368.331 125.16 370.253 123.238 370.253 120.867C370.253 118.496 368.331 116.573 365.96 116.573C363.589 116.573 361.667 118.496 361.667 120.867C361.667 123.238 363.589 125.16 365.96 125.16Z" fill="#034EFE"/>
<path d="M381.267 99.4933L482.44 116.573" stroke="#001C5B" stroke-miterlimit="10"/>
<path d="M397.04 107.987L499.799 125.253" stroke="#001C5B" stroke-miterlimit="10"/>
<path d="M378.466 111.44L454.626 122.92" stroke="#001C5B" stroke-miterlimit="10"/>
<path d="M375.293 119.933L495.973 141.773" stroke="#001C5B" stroke-miterlimit="10"/>
<path d="M375.293 125.253L482.44 144.293" stroke="#001C5B" stroke-miterlimit="10"/>
<path d="M431.2 143.827L491.4 154.747" stroke="#001C5B" stroke-miterlimit="10"/>
<path d="M400.12 222.227C400.866 224.84 401.799 228.667 403.013 233.147C405.346 242.2 411.133 264.88 416.92 292.693C423.92 326.387 428.493 356.16 431.293 376.693C419.44 374.173 407.586 371.653 395.64 369.133C384.533 345.987 378.653 332.733 375.2 324.613C374.266 322.373 371.746 316.307 367.639 308.653C364.373 302.587 361.386 297.733 359.52 294.84C358.866 296.893 357.746 300.16 356.253 303.893C352.426 313.693 348.6 320.6 347.2 323.213C343.653 329.747 338.52 339.92 331.893 355.787C318.173 352.893 304.546 350 290.826 347.2C296.426 327.973 302.493 308.56 308.933 288.773C311.36 281.493 313.693 274.307 316.12 267.12C321.626 262.08 327.879 256.947 334.879 252C358.493 235.387 381.92 226.8 400.12 222.227Z" fill="#F0F4FF"/>
<path d="M316.026 266.653C306.693 293.347 299.04 320.693 290.08 347.573C289.893 348.04 290.64 348.227 290.733 347.76C299.693 320.88 307.253 293.627 316.68 266.84C316.773 266.373 316.12 266.187 316.026 266.653Z" fill="#001C5B"/>
<path d="M399.746 222.32C413.28 272.907 423.733 324.333 430.826 376.227C430.92 376.693 431.573 376.507 431.48 376.04C424.386 324.147 413.933 272.72 400.4 222.133C400.306 221.667 399.653 221.853 399.746 222.32Z" fill="#001C5B"/>
<path d="M347.106 283.92C360.733 292.133 366.986 307.253 373.24 321.16C380.706 337.68 388.173 354.293 395.64 370.813C395.826 371.187 396.386 370.907 396.2 370.44C388.266 352.8 380.333 335.067 372.306 317.427C366.426 304.453 359.986 290.92 347.386 283.267C347.106 283.08 346.733 283.733 347.106 283.92Z" fill="#001C5B"/>
<path d="M358.866 297.733C349.719 317.147 340.666 336.56 331.52 355.973C331.333 356.347 331.893 356.72 332.079 356.347C341.226 336.933 350.279 317.52 359.426 298.107C359.613 297.64 359.053 297.267 358.866 297.733Z" fill="#001C5B"/>
<path d="M193.76 150.453C196 149.8 197.586 149.707 206.733 148.587C218.12 147.187 227.266 145.787 233.24 144.76C235.386 145.413 238.653 146.813 241.546 149.707C246.306 154.467 247.146 160.44 247.613 163.8C248.173 168.093 247.8 171.64 247.24 174.16C243.413 175.747 239.213 177.24 234.92 178.733C232.4 179.573 223.813 182.373 212.053 184.893C208.04 185.733 197.96 187.787 184.706 189.187C179.106 189.747 174.346 190.027 170.8 190.213C176.866 161.467 186.2 152.787 193.76 150.453Z" fill="#001C5B"/>
<path d="M177.426 190.213C190.493 189.373 203.466 187.413 216.16 184.427C228.386 181.533 240.986 178.173 252.093 172.2C252.466 172.013 252.093 171.36 251.72 171.64C240.706 177.52 228.013 180.88 215.88 183.773C203.186 186.76 190.306 188.627 177.333 189.56C177.053 189.56 176.96 190.213 177.426 190.213Z" fill="#001C5B"/>
<path d="M193.853 150.733C211.026 148.307 228.106 145.88 245.28 143.36C245.746 143.267 245.56 142.613 245.093 142.707C227.92 145.133 210.84 147.56 193.666 150.08C193.2 150.173 193.386 150.827 193.853 150.733Z" fill="#001C5B"/>
<path d="M229.133 144.76C228.76 146.347 228.293 148.773 229.04 151.573C229.88 154.653 231.747 156.613 232.68 157.547C237.627 162.867 235.293 162.587 245.093 175.187C246.307 176.68 250.04 181.44 255.92 188.067C257.88 190.213 264.133 197.12 277.573 209.907C283.36 215.413 291.013 222.507 300.253 230.627C301.653 234.36 303.147 238.187 304.64 242.013C307.533 249.387 310.427 256.667 313.413 263.76C313.88 264.693 314.72 266 316.213 267.12C318.827 269.173 321.907 269.36 326.947 269.36C333.573 269.36 336.933 269.36 339.547 269.08C350 267.96 357.933 265.067 361.853 263.48C365.96 261.8 371.187 259.653 377.16 255.36C380.613 252.933 386.96 248.267 392.373 239.773C394.613 236.32 397.507 230.813 399.28 223.347C397.88 218.867 395.827 212.987 393.027 206.267C390.787 200.853 386.773 191.24 379.773 179.76C376.693 174.72 371.467 166.227 362.973 156.52C358.027 150.92 350.747 142.8 339.64 135.333C333.853 131.413 319.573 121.987 299.227 119C288.867 117.507 281.307 118.253 279.533 118.44C269.64 119.56 262.453 122.453 257.32 124.693C251.533 127.12 243.6 130.573 235.573 137.947C232.773 140.467 230.533 142.987 229.133 144.76Z" fill="#001C5B"/>
<path d="M264.973 333.013C263.76 332.733 261.987 332.267 259.84 332.08C256.573 331.707 254.8 331.613 252.747 332.547C252.093 332.827 249.294 334.227 248.827 337.027C248.547 338.613 249.2 339.92 249.48 340.573C245.373 341.787 242.76 343.747 241.36 344.96C238.84 347.2 238.094 349.16 237.907 349.627C237.534 350.747 236.694 352.8 237.627 354.76C237.907 355.32 238.467 356.347 241.454 357.84C244.627 359.427 246.774 360.547 249.854 360.453C253.587 360.453 256.387 358.773 258.347 357.56C260.773 356.067 260.213 355.787 263.573 353.453C266.933 351.12 267.96 351.12 270.947 348.787C272.533 347.573 273.747 346.64 274.96 344.96C275.707 344.027 277.2 341.973 277.853 338.893C278.04 338.053 278.227 336.653 277.947 334.973C277.853 334.6 277.48 332.267 276.36 331.147C274.493 329.187 269.733 329.747 264.973 333.013Z" fill="#F0F4FF"/>
<path d="M305.014 120.027C302.587 123.853 300.16 128.053 297.827 132.72C292.134 143.92 288.68 154.56 286.534 163.613C283.547 184.427 280.654 205.52 277.854 226.8C273.28 262.453 269.267 297.453 265.72 331.893C266.84 331.613 268.707 331.333 270.76 331.8C275.52 332.92 277.854 336.933 278.227 337.68C280.28 332.547 282.894 325.827 285.88 317.987C289.8 307.627 295.214 293.347 301.187 276.36C306.414 261.707 313.227 240.52 326.76 198.707C329.654 189.653 331.707 180.413 334.787 171.453C335.72 168.933 337.214 164.547 338.054 158.48C338.707 153.253 339.36 148.4 337.4 142.707C335.16 136.173 330.867 132.347 328.347 130.013C323.867 125.907 319.387 124.04 317.24 123.107C312.48 121.053 308.094 120.307 305.014 120.027Z" fill="#001C5B"/>
<path d="M305.947 120.493C321.907 122.173 338.707 134.493 338.427 151.76C338.334 160.067 335.44 168.28 333.107 176.213C330.867 183.96 328.534 191.8 326.2 199.547C316.96 229.973 306.787 260.213 295.96 290.08C289.707 307.253 283.174 324.427 276.454 341.413C276.267 341.787 276.92 341.973 277.107 341.6C290.174 308.653 302.307 275.427 313.507 241.827C319.014 225.307 324.24 208.693 329.28 191.987C331.894 183.4 334.507 174.813 336.747 166.227C338.614 159.413 340.107 152.133 338.52 145.04C335.347 130.76 319.667 121.24 305.947 119.84C305.574 119.747 305.574 120.493 305.947 120.493Z" fill="#F0F4FF"/>
<path d="M276.733 341.133C273.28 349.253 264.133 351.4 258.253 357.187C257.973 357.467 258.44 358.027 258.72 357.653C264.6 351.773 273.84 349.627 277.293 341.413C277.48 341.133 276.92 340.76 276.733 341.133Z" fill="#001C5B"/>
<path d="M264.787 332.547C259.933 331.8 250.787 329.373 249.387 336.373C249.293 336.84 249.947 337.027 250.04 336.56C251.347 330.027 260.027 332.453 264.6 333.2C264.973 333.293 265.16 332.547 264.787 332.547Z" fill="#001C5B"/>
<path d="M256.947 336.933C249.573 340.76 236.507 343 237.067 353.827C237.067 354.293 237.813 354.293 237.813 353.827C237.253 343.28 250.133 341.32 257.32 337.587C257.693 337.4 257.32 336.747 256.947 336.933Z" fill="#001C5B"/>
<path d="M240.987 355.973C242.48 350.933 246.027 347.013 250.787 344.867C251.16 344.68 250.88 344.12 250.413 344.307C245.467 346.547 241.827 350.653 240.333 355.88C240.24 356.253 240.893 356.44 240.987 355.973Z" fill="#001C5B"/>
<path d="M245.373 358.12C247.707 353.173 251.627 349.44 256.573 347.293C256.947 347.107 256.667 346.547 256.2 346.733C251.067 348.88 247.053 352.8 244.72 357.84C244.533 358.12 245.093 358.493 245.373 358.12Z" fill="#001C5B"/>
<path d="M250.32 360.453C251.72 356.253 254.894 352.893 259.094 351.213C259.467 351.027 259.374 350.373 258.907 350.56C254.52 352.333 251.16 355.787 249.667 360.267C249.48 360.733 250.134 360.92 250.32 360.453Z" fill="#001C5B"/>
<path d="M242.107 131.787C241.36 131.227 240.147 130.387 238.84 129.08C237.534 127.68 235.667 125.813 234.64 122.92C234.174 121.427 233.054 117.973 234.827 114.613C234.92 114.333 236.787 111.16 240.427 110.32C241.64 110.04 242.854 110.04 248.36 111.907C254.707 114.053 254.52 114.52 259.934 116.387C262.08 117.04 263.76 117.6 266.187 118.813C267.867 119.747 269.174 120.4 270.48 121.707C273.467 124.693 274.214 128.333 274.4 129.36C274.774 131.32 275.147 133.467 274.214 135.427C271.694 140.56 261.52 139.907 260.4 139.907C253.214 139.347 247.8 135.613 242.107 131.787Z" fill="#001C5B"/>
<path d="M242.2 131.227C242.014 132.253 241.827 133.747 241.92 135.613C241.92 137.667 242.014 141.587 244.347 145.6C245.187 147.093 247.054 150.173 250.974 151.947C254.427 153.533 257.507 153.16 259.28 152.973C263.574 152.507 266.467 150.64 267.12 150.173C267.867 149.613 269.174 148.773 270.387 147.28C272.347 144.853 272.907 142.427 273.747 138.6C274.214 136.733 274.4 135.053 274.587 133.747C273.654 132.16 271.04 128.333 266 125.907C260.587 123.293 255.734 123.853 254.8 124.04C247.52 124.88 243.227 130.013 242.2 131.227Z" fill="#F0F4FF"/>
<path d="M241.827 131.787C240.8 141.027 244.72 152.693 255.547 153.627C265.72 154.467 274.12 147 274.213 137.013C274.213 136.547 273.56 136.547 273.467 137.013C273.373 146.813 264.227 154.747 254.24 152.787C244.627 150.92 241.547 140.373 242.48 131.88C242.573 131.32 241.827 131.32 241.827 131.787Z" fill="#001C5B"/>
<path d="M250.227 132.813C248.64 136.547 247.24 142.893 251.44 145.507C251.814 145.787 252.187 145.133 251.814 144.947C247.894 142.52 249.48 136.453 250.88 133C251.067 132.627 250.414 132.44 250.227 132.813Z" fill="#001C5B"/>
<path d="M242.107 131.133C237.067 128.147 232.773 121.8 234.827 115.827C237.627 107.52 246.773 111.533 252.56 113.773C262.267 117.507 275.613 120.4 274.307 133.747C274.307 134.213 274.96 134.213 275.053 133.747C275.613 127.867 273.093 122.173 267.867 119.187C264.507 117.227 260.587 116.107 256.947 114.707C252.653 113.027 247.987 110.6 243.32 109.947C238.187 109.293 234.08 112.84 233.613 117.973C233.147 123.573 237.253 128.987 241.827 131.693C242.2 131.973 242.573 131.32 242.107 131.133Z" fill="#001C5B"/>
<path d="M242.48 131.413C250.227 119.747 267.493 123.2 274.213 133.933C274.493 134.307 275.053 133.933 274.773 133.56C267.773 122.36 249.947 119 241.827 131.04C241.64 131.413 242.293 131.787 242.48 131.413Z" fill="#001C5B"/>
<path d="M256.853 136.173C257.472 136.173 257.973 135.254 257.973 134.12C257.973 132.986 257.472 132.067 256.853 132.067C256.235 132.067 255.733 132.986 255.733 134.12C255.733 135.254 256.235 136.173 256.853 136.173Z" fill="#001C5B"/>
<path d="M225.213 130.013C225.587 130.293 225.96 130.667 226.333 131.04C228.573 133.28 229.787 135.8 230.533 137.853C229.973 138.787 229.133 140.373 228.107 142.147C226.8 144.2 222.133 151.76 212.52 161.653C209.813 164.453 211.12 162.867 202.253 171.267C194.32 178.827 184.613 188.253 176.867 189.747C174.907 190.12 172.853 190.12 172.853 190.12C171.36 190.12 168 190.027 164.08 188.533C161.187 187.413 158.667 186.387 156.707 183.867C153.907 180.227 154.093 175.84 154.187 174.627C154.28 173.693 154.56 170.52 158.667 164.733C161.747 160.44 165.293 156.8 169.493 153.533C174.813 149.333 179.387 147.093 184.24 144.667C186.013 143.733 191.427 141.213 203.84 136.827C209.347 134.96 216.533 132.533 225.213 130.013Z" fill="#001C5B"/>
<path d="M225.213 130.013C225.96 129.827 227.173 129.453 228.667 129.08C233.613 127.773 234.547 127.96 237.533 127.027C240.707 126 240.427 125.533 243.32 124.787C245.28 124.227 247.24 123.76 249.667 124.133C253.12 124.6 256.76 126.84 256.573 128.427C256.48 129.08 255.827 129.453 255.36 129.733C253.493 130.853 251.72 130.013 249.667 130.013C248.173 130.013 246.12 131.133 241.827 133.467C237.627 135.707 236.693 136.64 234.36 136.827C232.587 137.013 231 136.64 230.067 136.267C229.6 135.333 228.947 134.213 228.013 133C226.987 131.693 226.053 130.76 225.213 130.013Z" fill="#F0F4FF"/>
<path d="M225.027 130.387C227.547 132.347 229.32 134.96 230.253 138.04C230.347 138.507 231.093 138.32 230.907 137.853C229.973 134.587 228.107 131.787 225.4 129.733C225.027 129.453 224.653 130.107 225.027 130.387Z" fill="#001C5B"/>
<path d="M231.186 136.64C234.64 137.667 237.533 136.547 240.52 134.587C242.76 133.093 244.906 131.32 247.52 130.573C250.133 129.92 253.12 130.107 255.733 129.92C256.2 129.92 256.2 129.173 255.733 129.173C252.466 129.36 248.92 129.08 245.84 130.293C240.893 132.347 237.44 137.667 231.28 135.8C230.907 135.8 230.72 136.453 231.186 136.64Z" fill="#001C5B"/>
<path d="M226.893 129.827C235.946 127.96 247.053 123.76 255.826 128.24C256.2 128.427 256.573 127.867 256.2 127.68C247.146 123.107 235.946 127.307 226.706 129.267C226.24 129.173 226.426 129.92 226.893 129.827Z" fill="#001C5B"/>
<path d="M237.533 127.307C239.773 126.933 241.547 125.44 243.787 124.88C246.773 124.04 249.76 124.133 252.747 124.973C253.213 125.067 253.4 124.413 252.933 124.32C250.507 123.667 248.08 123.387 245.653 123.853C242.667 124.32 240.333 126.187 237.44 126.747C236.88 126.747 237.067 127.4 237.533 127.307Z" fill="#001C5B"/>
</svg>
