<svg width="76" height="12" viewBox="0 0 76 12" fill="none" xmlns="http://www.w3.org/2000/svg">
<g clip-path="url(#clip0_44_52)">
<path d="M11.9687 4.60323C11.8902 4.36024 11.6746 4.18766 11.4197 4.16468L7.95614 3.85019L6.58656 0.644572C6.48558 0.409641 6.25559 0.257568 6.00006 0.257568C5.74453 0.257568 5.51454 0.409641 5.41356 0.645121L4.04399 3.85019L0.579908 4.16468C0.325385 4.18821 0.110414 4.36024 0.0314019 4.60323C-0.0476102 4.84622 0.0253592 5.11273 0.2179 5.28074L2.83592 7.57676L2.06392 10.9774C2.00744 11.2274 2.10448 11.4859 2.31195 11.6359C2.42346 11.7164 2.55393 11.7574 2.68549 11.7574C2.79893 11.7574 2.91145 11.7269 3.01244 11.6664L6.00006 9.88083L8.98659 11.6664C9.20513 11.7979 9.48062 11.7859 9.68762 11.6359C9.89518 11.4854 9.99214 11.2269 9.93565 10.9774L9.16366 7.57676L11.7817 5.2812C11.9742 5.11273 12.0477 4.84668 11.9687 4.60323Z" fill="#FFC107"/>
</g>
<g clip-path="url(#clip1_44_52)">
<path d="M27.9687 4.60323C27.8902 4.36024 27.6746 4.18766 27.4197 4.16468L23.9561 3.85019L22.5866 0.644572C22.4856 0.409641 22.2556 0.257568 22.0001 0.257568C21.7445 0.257568 21.5145 0.409641 21.4136 0.645121L20.044 3.85019L16.5799 4.16468C16.3254 4.18821 16.1104 4.36024 16.0314 4.60323C15.9524 4.84622 16.0254 5.11273 16.2179 5.28074L18.8359 7.57676L18.0639 10.9774C18.0074 11.2274 18.1045 11.4859 18.3119 11.6359C18.4235 11.7164 18.5539 11.7574 18.6855 11.7574C18.7989 11.7574 18.9115 11.7269 19.0124 11.6664L22.0001 9.88083L24.9866 11.6664C25.2051 11.7979 25.4806 11.7859 25.6876 11.6359C25.8952 11.4854 25.9921 11.2269 25.9356 10.9774L25.1637 7.57676L27.7817 5.2812C27.9742 5.11273 28.0477 4.84668 27.9687 4.60323Z" fill="#FFC107"/>
</g>
<g clip-path="url(#clip2_44_52)">
<path d="M43.9687 4.60323C43.8902 4.36024 43.6746 4.18766 43.4197 4.16468L39.9561 3.85019L38.5866 0.644572C38.4856 0.409641 38.2556 0.257568 38.0001 0.257568C37.7445 0.257568 37.5145 0.409641 37.4136 0.645121L36.044 3.85019L32.5799 4.16468C32.3254 4.18821 32.1104 4.36024 32.0314 4.60323C31.9524 4.84622 32.0254 5.11273 32.2179 5.28074L34.8359 7.57676L34.0639 10.9774C34.0074 11.2274 34.1045 11.4859 34.3119 11.6359C34.4235 11.7164 34.5539 11.7574 34.6855 11.7574C34.7989 11.7574 34.9115 11.7269 35.0124 11.6664L38.0001 9.88083L40.9866 11.6664C41.2051 11.7979 41.4806 11.7859 41.6876 11.6359C41.8952 11.4854 41.9921 11.2269 41.9356 10.9774L41.1637 7.57676L43.7817 5.2812C43.9742 5.11273 44.0477 4.84668 43.9687 4.60323Z" fill="#FFC107"/>
</g>
<g clip-path="url(#clip3_44_52)">
<path d="M59.9687 4.60323C59.8902 4.36024 59.6746 4.18766 59.4197 4.16468L55.9561 3.85019L54.5866 0.644572C54.4856 0.409641 54.2556 0.257568 54.0001 0.257568C53.7445 0.257568 53.5145 0.409641 53.4136 0.645121L52.044 3.85019L48.5799 4.16468C48.3254 4.18821 48.1104 4.36024 48.0314 4.60323C47.9524 4.84622 48.0254 5.11273 48.2179 5.28074L50.8359 7.57676L50.0639 10.9774C50.0074 11.2274 50.1045 11.4859 50.3119 11.6359C50.4235 11.7164 50.5539 11.7574 50.6855 11.7574C50.7989 11.7574 50.9115 11.7269 51.0124 11.6664L54.0001 9.88083L56.9866 11.6664C57.2051 11.7979 57.4806 11.7859 57.6876 11.6359C57.8952 11.4854 57.9921 11.2269 57.9356 10.9774L57.1637 7.57676L59.7817 5.2812C59.9742 5.11273 60.0477 4.84668 59.9687 4.60323Z" fill="#FFC107"/>
</g>
<g clip-path="url(#clip4_44_52)">
<path d="M75.9687 4.60323C75.8902 4.36024 75.6746 4.18766 75.4197 4.16468L71.9561 3.85019L70.5866 0.644572C70.4856 0.409641 70.2556 0.257568 70.0001 0.257568C69.7445 0.257568 69.5145 0.409641 69.4136 0.645121L68.044 3.85019L64.5799 4.16468C64.3254 4.18821 64.1104 4.36024 64.0314 4.60323C63.9524 4.84622 64.0254 5.11273 64.2179 5.28074L66.8359 7.57676L66.0639 10.9774C66.0074 11.2274 66.1045 11.4859 66.3119 11.6359C66.4235 11.7164 66.5539 11.7574 66.6855 11.7574C66.7989 11.7574 66.9115 11.7269 67.0124 11.6664L70.0001 9.88083L72.9866 11.6664C73.2051 11.7979 73.4806 11.7859 73.6876 11.6359C73.8952 11.4854 73.9921 11.2269 73.9356 10.9774L73.1637 7.57676L75.7817 5.2812C75.9742 5.11273 76.0477 4.84668 75.9687 4.60323Z" fill="#FFC107"/>
</g>
<defs>
<clipPath id="clip0_44_52">
<rect width="12" height="12" fill="white"/>
</clipPath>
<clipPath id="clip1_44_52">
<rect width="12" height="12" fill="white" transform="translate(16)"/>
</clipPath>
<clipPath id="clip2_44_52">
<rect width="12" height="12" fill="white" transform="translate(32)"/>
</clipPath>
<clipPath id="clip3_44_52">
<rect width="12" height="12" fill="white" transform="translate(48)"/>
</clipPath>
<clipPath id="clip4_44_52">
<rect width="12" height="12" fill="white" transform="translate(64)"/>
</clipPath>
</defs>
</svg>
