<svg width="181" height="38" viewBox="0 0 181 38" fill="none" xmlns="http://www.w3.org/2000/svg">
<path d="M62.9394 31.3796C59.3028 31.3796 56.498 29.3714 56.498 26.132H59.695C59.8257 27.6382 60.8715 28.8455 62.9394 28.8455C65.0311 28.8455 66.2195 27.7099 66.2195 26.1559C66.2195 21.7332 56.5575 24.602 56.5575 17.8603C56.5575 14.6448 59.1007 12.6366 62.8206 12.6366C66.3027 12.6366 68.7628 14.4774 69.0242 17.6212H65.7204C65.6134 16.378 64.5438 15.2544 62.6542 15.1946C60.9191 15.1468 59.588 15.9836 59.588 17.7527C59.588 21.8886 69.2263 19.3066 69.2263 26.0005C69.2263 28.7379 66.992 31.3796 62.9394 31.3796Z" fill="#FDFDFD"/>
<path d="M71.1992 24.2912C71.1992 23.7891 71.223 23.311 71.3062 22.8209H82.3349C82.121 20.4182 80.4215 18.9719 78.2229 18.9719C76.3927 18.9719 75.3707 19.8684 74.8121 21.004H71.5914C72.3996 18.4698 74.6814 16.4497 78.2229 16.4497C82.3587 16.4497 85.4249 19.4022 85.4249 23.9565C85.4249 28.5107 82.4894 31.4393 78.2229 31.4393C74.1109 31.4274 71.1992 28.5585 71.1992 24.2912ZM82.3112 25.2355H74.3248C74.3724 27.4708 76.1313 28.8932 78.3655 28.8932C80.374 28.9052 82.0022 27.5305 82.3112 25.2355Z" fill="#FDFDFD"/>
<path d="M98.1056 23.0719C98.1056 20.4063 96.6675 19.0436 94.4927 19.0436C92.2941 19.0436 90.856 20.4182 90.856 23.0719V31.1883H87.873V16.6768H90.856V18.3383C91.8306 17.155 93.4231 16.4377 95.1582 16.4377C98.5334 16.4377 101.077 18.5774 101.077 22.6296V31.1883H98.1174V23.0719H98.1056Z" fill="#FDFDFD"/>
<path d="M103.347 24.2912C103.347 23.7891 103.37 23.311 103.454 22.8209H114.482C114.268 20.4182 112.569 18.9719 110.37 18.9719C108.54 18.9719 107.518 19.8684 106.96 21.004H103.739C104.547 18.4698 106.829 16.4497 110.37 16.4497C114.506 16.4497 117.572 19.4022 117.572 23.9565C117.572 28.5107 114.637 31.4393 110.37 31.4393C106.246 31.4274 103.347 28.5585 103.347 24.2912ZM114.447 25.2355H106.46C106.508 27.4708 108.267 28.8932 110.501 28.8932C112.51 28.9052 114.138 27.5305 114.447 25.2355Z" fill="#FDFDFD"/>
<path d="M125.986 16.4378C127.876 16.4378 129.86 17.3343 130.966 18.7089V11.6923H133.984V31.1883H130.966V29.0008C130.05 30.3157 128.315 31.4274 125.962 31.4274C122.159 31.4274 119.152 28.3434 119.152 23.8609C119.14 19.3903 122.159 16.4378 125.986 16.4378ZM126.58 19.0436C124.358 19.0436 122.207 20.7291 122.207 23.8609C122.207 26.9927 124.358 28.8096 126.58 28.8096C128.838 28.8096 130.954 27.0405 130.954 23.9087C130.954 20.8127 128.838 19.0436 126.58 19.0436Z" fill="#FDFDFD"/>
<path d="M135.945 12.8756H148.65V15.3261H143.801V31.1883H140.818V15.3261H135.945V12.8756Z" fill="#FDFDFD"/>
<path d="M154.865 16.4377C157.302 16.4377 158.977 17.5972 159.869 18.7806V16.6768H162.887V31.2002H159.869V29.0367C158.954 30.2798 157.219 31.4393 154.818 31.4393C151.074 31.4393 148.056 28.3553 148.056 23.8728C148.056 19.3902 151.062 16.4377 154.865 16.4377ZM155.495 19.0436C153.273 19.0436 151.122 20.729 151.122 23.8608C151.122 26.9926 153.273 28.8096 155.495 28.8096C157.753 28.8096 159.869 27.0404 159.869 23.9086C159.869 20.8127 157.741 19.0436 155.495 19.0436Z" fill="#FDFDFD"/>
<path d="M174.213 16.4377C178.016 16.4377 180.999 19.3902 180.999 23.8728C180.999 28.3553 178.016 31.4393 174.213 31.4393C171.824 31.4393 170.125 30.232 169.186 29.0964V38.1093H166.203V16.6768H169.186V18.8165C170.101 17.5972 171.86 16.4377 174.213 16.4377ZM173.56 19.0436C171.337 19.0436 169.186 20.8127 169.186 23.9206C169.186 27.0524 171.337 28.8215 173.56 28.8215C175.818 28.8215 177.957 27.0046 177.957 23.8728C177.969 20.729 175.818 19.0436 173.56 19.0436Z" fill="#FDFDFD"/>
<path d="M18.3016 34.5097L14.3916 30.577C14.1539 30.3379 13.7618 30.3379 13.5241 30.577L12.4664 31.6408C12.2287 31.8799 12.2287 32.2744 12.4664 32.5134L17.339 37.4143C18.1115 38.1913 19.3712 38.1913 20.1437 37.4143L29.1996 28.3058C29.4373 28.0668 29.4373 27.6723 29.1996 27.4332L28.1419 26.3694C27.9042 26.1303 27.512 26.1303 27.2744 26.3694L19.1811 34.5097C18.9315 34.7487 18.5393 34.7487 18.3016 34.5097Z" fill="#02E3FB"/>
<path d="M41.7381 12.8742L29.3545 0.406793C29.3189 0.370932 29.2713 0.335072 29.2357 0.299212L29.2238 0.287258C29.1763 0.251398 29.1168 0.215538 29.0693 0.179677C29.0099 0.143817 28.9505 0.11991 28.891 0.0960032C28.8554 0.0840498 28.8316 0.0720963 28.796 0.0601429C28.7603 0.0481894 28.7365 0.0481894 28.7009 0.036236H28.689C28.6652 0.0242825 28.6296 0.0242825 28.6058 0.0242825C28.6058 0.0242825 28.6058 0.0242825 28.5939 0.0242825C28.5583 0.0242825 28.5345 0.0123291 28.4988 0.0123291C28.487 0.0123291 28.487 0.0123291 28.4751 0.0123291C28.4394 0.0123291 28.4157 0.0123291 28.38 0.0123291C25.1831 0.0123291 21.9862 0.0123291 18.7893 0.0123291C18.7536 0.0123291 18.7298 0.0123291 18.6942 0.0123291C18.6823 0.0123291 18.6823 0.0123291 18.6704 0.0123291C18.6348 0.0123291 18.611 0.0123291 18.5753 0.0242825C18.5753 0.0242825 18.5753 0.0242825 18.5635 0.0242825C18.5397 0.0242825 18.504 0.036236 18.4803 0.036236H18.4684C18.4327 0.0481894 18.409 0.0481894 18.3733 0.0601429C18.3376 0.0720963 18.3139 0.0840498 18.2782 0.0960032C18.2188 0.11991 18.1594 0.143817 18.1 0.179677C18.0405 0.215538 17.993 0.251398 17.9455 0.287258L17.9336 0.299212C17.9098 0.323119 17.886 0.335072 17.8623 0.358979C17.8504 0.370932 17.8266 0.394839 17.8147 0.406793L0.582296 17.7393C-0.190192 18.5163 -0.190192 19.7833 0.582296 20.5603L8.22399 28.2464C8.46168 28.4854 8.85386 28.4854 9.09155 28.2464L10.1493 27.1825C10.387 26.9434 10.387 26.549 10.1493 26.3099L3.47021 19.5921C3.23253 19.353 3.23253 18.9585 3.47021 18.7195L18.3495 3.75376C18.5872 3.51469 18.9794 3.51469 19.2171 3.75376L23.5787 8.14067L27.9403 3.75376C28.178 3.51469 28.5701 3.51469 28.8078 3.75376L38.8383 13.8425C39.076 14.0815 39.076 14.476 38.8383 14.7151L31.4937 22.1023C31.256 22.3414 31.256 22.7358 31.4937 22.9749L32.5514 24.0388C32.7891 24.2778 33.1813 24.2778 33.419 24.0388L41.7262 15.6833C42.5106 14.9063 42.5106 13.6512 41.7381 12.8742ZM23.5906 4.2558L22.0812 2.74967H25.088L23.5906 4.2558Z" fill="white"/>
</svg>
